<?xml version="1.0" encoding="UTF-8"?> <svg xmlns="http://www.w3.org/2000/svg" width="208" height="51" viewBox="0 0 208 51" fill="none"><path d="M207.323 1.37106e-05C207.582 1.37106e-05 207.908 1.37106e-05 208 1.37106e-05C208 0.278358 208 0.610795 208 1.20616L208 8.07198C208 8.25804 208 8.44698 208 8.53976C207.908 8.53976 207.767 8.53976 207.545 8.53976H192.462L192.499 19.8552H204.494C204.679 19.8552 204.955 19.8552 205.048 19.8552C205.048 19.948 205.048 20.4114 205.048 20.5975V27.8344C205.048 28.0205 205.048 28.2953 205.048 28.3881C204.955 28.3881 204.716 28.3881 204.457 28.3881H192.462L192.499 39.7074C197.665 39.6994 202.837 39.7075 208 39.7075C208 39.8002 208 40.3371 208 40.8208V47.3155C208 47.7248 208 48.0578 208 48.2433C207.816 48.2433 207.577 48.2433 207.17 48.2433H185.045C184.601 48.2433 184.103 48.2433 184.01 48.2433C184.01 48.0578 184.01 47.6881 184.01 47.13V1.11039C184.01 0.663865 184.01 0.185546 184.01 1.26064e-05C184.195 -1.63884e-05 184.621 1.37106e-05 185.065 1.37106e-05H207.323Z" fill="#2E2E2E"></path><path d="M154.248 8.98589e-06H161.788C162.054 8.98589e-06 162.172 8.98589e-06 162.172 8.98589e-06V34.2632C162.172 35.1546 162.471 36.7674 162.73 37.4359C162.989 38.1044 163.322 38.6615 163.728 39.1072C164.135 39.5528 164.511 39.9299 165.029 40.1898C165.546 40.4127 166.078 40.4677 166.595 40.4677C167.076 40.4677 167.646 40.3885 168.163 40.1656C168.681 39.9428 169.124 39.6086 169.494 39.1629C169.9 38.7172 170.233 38.1601 170.492 37.4916C170.751 36.8231 170.835 35.1917 170.835 34.2632L171.019 0.648223C171.019 0.38825 171.029 0.00551374 171.019 8.52224e-06C171.019 8.52224e-06 171.258 0 171.48 0H178.974C179.344 0 179.498 2.8459e-05 179.498 2.8459e-05L179.529 34.2606C179.529 36.5632 179.159 38.5872 178.42 40.3328C177.681 42.0783 176.701 43.5453 175.481 44.7337C174.262 45.885 172.876 46.7578 171.323 47.352C169.771 47.9462 168.2 48.2433 166.611 48.2433C165.059 48.2433 163.506 47.9648 161.954 47.4077C160.439 46.8135 159.053 45.9222 157.796 44.7337C156.576 43.5453 155.578 42.0411 154.802 40.2213C154.063 38.4015 153.693 36.2475 153.693 33.7592V0.668509V0.557091C153.693 0.371397 153.693 0.0926033 153.693 0C153.785 0 153.97 -5.51959e-09 154.248 8.98589e-06Z" fill="#2E2E2E"></path><path d="M124.431 13.3859C124.431 11.7804 124.716 10.1748 125.287 8.56923C125.896 6.96367 126.734 5.52613 127.799 4.25661C128.903 2.9871 130.217 1.96028 131.739 1.17617C133.262 0.392057 134.937 0 136.764 0C138.477 0 140.076 0.373388 141.56 1.12016C143.083 1.8296 144.396 2.81907 145.5 4.08859C146.642 5.32077 147.537 6.75831 148.184 8.40121C148.869 10.0441 149.211 11.7804 149.211 13.61V35.2851C149.211 38.1602 148.355 40.8112 146.642 43.2382C147.22 43.9941 148.349 45.3405 148.983 46.2627C147.495 47.4819 145.881 48.7853 144.173 50.0887C143.224 49.0646 142.654 48.4129 141.789 47.3828C140.19 48.1296 138.515 48.503 136.764 48.503C135.089 48.503 133.509 48.1483 132.025 47.4388C130.54 46.7294 129.227 45.7772 128.085 44.5824C126.981 43.3502 126.087 41.9314 125.401 40.3258C124.754 38.7202 124.431 37.0027 124.431 35.1731V13.3859ZM133.338 35.7891C133.338 36.6853 133.528 37.4694 133.909 38.1415C134.328 38.8136 134.861 39.299 135.508 39.5977C135.251 39.1958 134.73 38.3685 134.492 37.9855C135.536 37.1476 138.098 35.1924 139.239 34.4086C139.427 34.6338 140.092 35.3786 140.247 35.5648V12.9939C140.247 12.5458 140.171 12.0791 140.019 11.5937C139.866 11.0709 139.638 10.6042 139.333 10.1935C139.067 9.7454 138.705 9.39068 138.248 9.12931C137.83 8.8306 137.335 8.68125 136.764 8.68125C136.193 8.68125 135.698 8.8306 135.279 9.12931C134.861 9.39068 134.499 9.7454 134.194 10.1935C133.928 10.6042 133.719 11.0709 133.566 11.5937C133.414 12.0791 133.338 12.5458 133.338 12.9939V35.7891Z" fill="#2E2E2E"></path><path d="M111.967 0H119.027C119.211 0 119.502 0 119.686 3.2499e-05C119.686 0.185551 119.686 0.556166 119.686 0.742205V48.2433C117.485 48.2433 113.262 48.2433 111.25 48.2433C111.25 48.2433 111.25 48.1099 111.25 47.6634V0.781367C111.25 0.595327 111.25 0.185551 111.25 5.93188e-05C111.433 0 111.783 0 111.967 0Z" fill="#2E2E2E"></path><path d="M89.0168 0.00304401C89.3872 0.00304401 89.7728 0.00303918 89.7728 0.00303918C92.7285 8.63063 95.2223 16.3305 98.0856 24.1232V0.784411C98.0856 0.449561 98.0856 0.0927357 98.0856 0.00298661C98.178 -3.41171e-05 98.5184 0.00304401 98.8518 0.00304401H105.742C106.112 0.00304401 106.676 0 106.768 0C106.768 0 106.768 0.518435 106.768 0.927698V47.4054C106.768 47.8146 106.768 48.1475 106.768 48.2403C103.935 48.2403 101.103 48.2403 98.2704 48.2403C98.2704 48.2403 98.0739 47.6634 97.9627 47.3286L89.9576 25.2364V47.2229V47.5012C89.9576 47.6872 89.9576 48.2433 89.9576 48.2433C89.8652 48.2433 89.4756 48.2433 89.0681 48.2433H82.1989C81.8655 48.2433 81.5523 48.2433 81.46 48.2433C81.46 48.1506 81.46 47.7006 81.46 47.3286V0.89598C81.46 0.486717 81.46 0.0958138 81.46 0.003073C81.5523 0.00304401 81.886 0.00304401 82.2935 0.00304401H89.0168Z" fill="#2E2E2E"></path><path d="M54.0435 0H78.0333C78.0333 0 78.0333 0.247583 78.0333 0.731287V7.70038C78.0333 7.88642 78.0333 8.34981 78.0333 8.34981C78.0333 8.34981 77.5725 8.34981 77.3874 8.34981H70.2827V47.5939C70.2827 47.823 70.2827 48.2433 70.2827 48.2433C70.1905 48.2433 69.8107 48.2433 69.5769 48.2433H62.4399C61.9588 48.2433 61.794 48.2433 61.794 48.2433V8.34981H54.6893C54.5043 8.34981 54.0435 8.34981 54.0435 8.34981C54.0435 8.34981 54.0435 7.88808 54.0435 7.70204V0.725556C54.0435 0.241852 54.0435 0 54.0435 0Z" fill="#2E2E2E"></path><path d="M36.3453 0H43.7971C46.5916 13.0814 51.3421 35.162 54.0434 48.2433C51.1558 48.2433 48.3614 48.2433 45.4738 48.2433C45.0081 46.3878 44.1697 43.3262 43.6662 41.1892H36.2695C35.7865 43.5118 35.1344 46.3878 34.6687 48.2433C34.6687 48.2433 34.3481 48.2433 33.9745 48.2433H26.8443C26.4707 48.2433 26.0991 48.2433 26.0991 48.2433C29.5456 32.1477 33.0032 15.9131 36.3453 0ZM38.2083 32.4715C39.438 32.4715 40.7233 32.4715 41.9342 32.4715C41.2822 29.4099 40.6992 26.3014 40.0799 23.2178C39.4192 26.2555 38.8603 29.4099 38.2083 32.4715Z" fill="#2E2E2E"></path><path d="M1.21038e-05 0.781367C1.21038e-05 0.446495 0 0 0 0C0 0 0.707871 0 1.11768 0H11.9032C15.2562 0 18.0318 1.09763 20.2299 3.2929C21.4966 4.59518 22.4652 6.17652 23.1358 8.03691C23.8064 9.8601 24.1417 11.8321 24.1417 13.953V14.5669C24.1417 19.2179 22.9123 22.455 20.4534 24.2782L20.3416 24.3898L20.3975 24.4456C22.9682 26.1944 24.2535 29.5803 24.2535 34.6034V34.9383C24.2535 36.9103 23.9182 38.7707 23.2476 40.5194C22.577 42.2682 21.627 43.7565 20.3975 44.9844C18.1994 47.2169 15.3185 48.2433 11.7047 48.2433H1.02184C0.649285 48.2433 0.18579 48.2433 0 48.2433C0 48.2433 1.21038e-05 47.9796 1.21038e-05 47.6076V0.781367ZM8.60608 28.5199V39.9613H11.6797C12.4993 39.9613 13.1699 39.7939 13.6915 39.459C14.2503 39.0869 14.6601 38.6404 14.9209 38.1195C15.219 37.5986 15.4239 37.0219 15.5356 36.3894C15.6474 35.7196 15.7033 35.0685 15.7033 34.4359V34.3243C15.7033 32.4267 15.3494 30.9942 14.6415 30.0268C13.9709 29.0222 12.9836 28.5199 11.6797 28.5199H8.60608ZM8.54632 8.53536V20.0395H11.6572C12.4768 20.0395 13.2268 19.8178 13.7484 19.4829C14.3073 19.148 14.6601 18.6598 14.9209 18.1389C15.219 17.618 15.4239 17.0412 15.5356 16.4087C15.6474 15.739 15.7033 15.0878 15.7033 14.4553V14.3437C15.7033 10.474 14.3621 8.53922 11.6797 8.53922C11.6052 8.53922 11.3444 8.53922 10.8973 8.53922C10.4502 8.53922 9.96591 8.53922 9.44433 8.53922C8.92276 8.53922 8.58358 8.53536 8.54632 8.53536Z" fill="#2E2E2E"></path></svg> 